{
  "accessors": [
    {
      "bufferView": 2,
      "componentType": 5126,
      "count": 297,
      "max": [
        2.0871849060058594,
        1.5293159484863281,
        13.631352424621582
      ],
      "min": [
        -2.6074299812316895,
        -3.0873639583587646,
        11.676374435424805
      ],
      "type": "VEC3"
    },
    {
      "bufferView": 2,
      "byteOffset": 3564,
      "componentType": 5126,
      "count": 297,
      "max": [
        0.7958653569221497,
        0.7959983944892883,
        0.6162060499191284
      ],
      "min": [
        -0.7958653569221497,
        -0.7959983944892883,
        0.6052987575531006
      ],
      "type": "VEC3"
    },
    {
      "bufferView": 1,
      "componentType": 5126,
      "count": 297,
      "max": [
        0.625,
        1.0
      ],
      "min": [
        0.49319401383399963,
        0.0
      ],
      "type": "VEC2"
    },
    {
      "bufferView": 0,
      "componentType": 5125,
      "count": 1536,
      "type": "SCALAR"
    },
    {
      "bufferView": 2,
      "byteOffset": 7128,
      "componentType": 5126,
      "count": 1864,
      "max": [
        -0.08940400183200836,
        -0.5123180150985718,
        10.946953773498535
      ],
      "min": [
        -0.5078639984130859,
        -0.9755920171737671,
        -0.9451180100440979
      ],
      "type": "VEC3"
    },
    {
      "bufferView": 2,
      "byteOffset": 29496,
      "componentType": 5126,
      "count": 1864,
      "max": [
        0.9972059726715088,
        0.995608389377594,
        0.0042999861761927605
      ],
      "min": [
        -0.9972034692764282,
        -0.995608389377594,
        -0.9998317360877991
      ],
      "type": "VEC3"
    },
    {
      "bufferView": 1,
      "byteOffset": 2376,
      "componentType": 5126,
      "count": 1864,
      "max": [
        0.625,
        1.0
      ],
      "min": [
        0.125,
        0.0
      ],
      "type": "VEC2"
    },
    {
      "bufferView": 0,
      "byteOffset": 6144,
      "componentType": 5125,
      "count": 3456,
      "type": "SCALAR"
    },
    {
      "bufferView": 2,
      "byteOffset": 51864,
      "componentType": 5126,
      "count": 5409,
      "max": [
        2.024960994720459,
        1.5701329708099365,
        -0.5107809901237488
      ],
      "min": [
        -2.6809918880462646,
        -3.1358211040496826,
        -0.9549850225448608
      ],
      "type": "VEC3"
    },
    {
      "bufferView": 2,
      "byteOffset": 116772,
      "componentType": 5126,
      "count": 5409,
      "max": [
        0.29158955812454224,
        0.29158955812454224,
        1.0
      ],
      "min": [
        -0.29158955812454224,
        -0.29158955812454224,
        0.9564657807350159
      ],
      "type": "VEC3"
    },
    {
      "bufferView": 1,
      "byteOffset": 17288,
      "componentType": 5126,
      "count": 5409,
      "max": [
        1.0,
        1.0
      ],
      "min": [
        0.0,
        0.0
      ],
      "type": "VEC2"
    },
    {
      "bufferView": 0,
      "byteOffset": 19968,
      "componentType": 5125,
      "count": 9216,
      "type": "SCALAR"
    },
    {
      "bufferView": 2,
      "byteOffset": 181680,
      "componentType": 5126,
      "count": 1536,
      "max": [
        0.25486600399017334,
        -0.23412899672985077,
        10.71807861328125
      ],
      "min": [
        -0.777442991733551,
        -1.26643705368042,
        10.620938301086426
      ],
      "type": "VEC3"
    },
    {
      "bufferView": 2,
      "byteOffset": 200112,
      "componentType": 5126,
      "count": 1536,
      "max": [
        0.7387822866439819,
        0.7387822866439819,
        0.9999361038208008
      ],
      "min": [
        -0.7387822866439819,
        -0.7387822866439819,
        -0.9999361038208008
      ],
      "type": "VEC3"
    },
    {
      "bufferView": 1,
      "byteOffset": 60560,
      "componentType": 5126,
      "count": 1536,
      "max": [
        0.875,
        1.0
      ],
      "min": [
        0.125,
        0.0
      ],
      "type": "VEC2"
    },
    {
      "bufferView": 0,
      "byteOffset": 56832,
      "componentType": 5125,
      "count": 2304,
      "type": "SCALAR"
    },
    {
      "bufferView": 2,
      "byteOffset": 218544,
      "componentType": 5126,
      "count": 376,
      "max": [
        -0.2298080027103424,
        1.1979180574417114,
        12.194828987121582
      ],
      "min": [
        -0.3947179913520813,
        -0.5555059909820557,
        10.750590324401855
      ],
      "type": "VEC3"
    },
    {
      "bufferView": 2,
      "byteOffset": 223056,
      "componentType": 5126,
      "count": 376,
      "max": [
        0.9992517828941345,
        0.7799612879753113,
        0.7792198657989502
      ],
      "min": [
        -0.9992517828941345,
        -0.7799612879753113,
        -0.7792198657989502
      ],
      "type": "VEC3"
    },
    {
      "bufferView": 1,
      "byteOffset": 72848,
      "componentType": 5126,
      "count": 376,
      "max": [
        1.0,
        1.0
      ],
      "min": [
        0.0,
        0.009999999776482582
      ],
      "type": "VEC2"
    },
    {
      "bufferView": 0,
      "byteOffset": 66048,
      "componentType": 5125,
      "count": 744,
      "type": "SCALAR"
    },
    {
      "bufferView": 2,
      "byteOffset": 227568,
      "componentType": 5126,
      "count": 384,
      "max": [
        1.705003023147583,
        -0.6796339750289917,
        12.239038467407227
      ],
      "min": [
        -2.2386178970336914,
        -0.8222299814224243,
        10.689513206481934
      ],
      "type": "VEC3"
    },
    {
      "bufferView": 2,
      "byteOffset": 232176,
      "componentType": 5126,
      "count": 384,
      "max": [
        0.7583904266357422,
        0.9980124235153198,
        0.756990373134613
      ],
      "min": [
        -0.7583904266357422,
        -0.998016893863678,
        -0.756990373134613
      ],
      "type": "VEC3"
    },
    {
      "bufferView": 1,
      "byteOffset": 75856,
      "componentType": 5126,
      "count": 384,
      "max": [
        1.0,
        1.0
      ],
      "min": [
        0.0,
        0.009999999776482582
      ],
      "type": "VEC2"
    },
    {
      "bufferView": 0,
      "byteOffset": 69024,
      "componentType": 5125,
      "count": 744,
      "type": "SCALAR"
    },
    {
      "bufferView": 2,
      "byteOffset": 236784,
      "componentType": 5126,
      "count": 376,
      "max": [
        -0.2424599975347519,
        -0.900056004524231,
        12.299317359924316
      ],
      "min": [
        -0.45231398940086365,
        -2.659714937210083,
        10.674023628234863
      ],
      "type": "VEC3"
    },
    {
      "bufferView": 2,
      "byteOffset": 241296,
      "componentType": 5126,
      "count": 376,
      "max": [
        0.9989153742790222,
        0.7377058863639832,
        0.7369052171707153
      ],
      "min": [
        -0.9989153742790222,
        -0.7377058863639832,
        -0.7369052171707153
      ],
      "type": "VEC3"
    },
    {
      "bufferView": 1,
      "byteOffset": 78928,
      "componentType": 5126,
      "count": 376,
      "max": [
        1.0,
        1.0
      ],
      "min": [
        0.0,
        0.009999999776482582
      ],
      "type": "VEC2"
    },
    {
      "bufferView": 0,
      "byteOffset": 72000,
      "componentType": 5125,
      "count": 744,
      "type": "SCALAR"
    },
    {
      "bufferView": 2,
      "byteOffset": 245808,
      "componentType": 5126,
      "count": 160,
      "max": [
        0.06360000371932983,
        -0.40602201223373413,
        11.357196807861328
      ],
      "min": [
        -0.5972149968147278,
        -1.066836953163147,
        10.696381568908691
      ],
      "type": "VEC3"
    },
    {
      "bufferView": 2,
      "byteOffset": 247728,
      "componentType": 5126,
      "count": 160,
      "max": [
        0.9938156008720398,
        0.9938156008720398,
        -0.052400823682546616
      ],
      "min": [
        -0.9938156008720398,
        -0.9938156008720398,
        -1.0
      ],
      "type": "VEC3"
    },
    {
      "bufferView": 1,
      "byteOffset": 81936,
      "componentType": 5126,
      "count": 160,
      "max": [
        1.0,
        1.0
      ],
      "min": [
        0.0,
        0.009999999776482582
      ],
      "type": "VEC2"
    },
    {
      "bufferView": 0,
      "byteOffset": 74976,
      "componentType": 5125,
      "count": 282,
      "type": "SCALAR"
    },
    {
      "bufferView": 2,
      "byteOffset": 249648,
      "componentType": 5126,
      "count": 31744,
      "max": [
        0.1632850021123886,
        -0.30755800008773804,
        11.977378845214844
      ],
      "min": [
        -0.7000899910926819,
        -1.1709330081939697,
        11.104955673217773
      ],
      "type": "VEC3"
    },
    {
      "bufferView": 2,
      "byteOffset": 630576,
      "componentType": 5126,
      "count": 31744,
      "max": [
        0.9993995428085327,
        0.9993995428085327,
        0.9969576597213745
      ],
      "min": [
        -0.9993995428085327,
        -0.9993995428085327,
        -0.9969576597213745
      ],
      "type": "VEC3"
    },
    {
      "bufferView": 1,
      "byteOffset": 83216,
      "componentType": 5126,
      "count": 31744,
      "max": [
        1.0,
        1.0
      ],
      "min": [
        0.0,
        0.0
      ],
      "type": "VEC2"
    },
    {
      "bufferView": 0,
      "byteOffset": 76104,
      "componentType": 5125,
      "count": 47616,
      "type": "SCALAR"
    }
  ],
  "asset": {
    "extras": {
      "author": "slend02385 (https://sketchfab.com/slend02385)",
      "license": "CC-BY-4.0 (http://creativecommons.org/licenses/by/4.0/)",
      "source": "https://sketchfab.com/3d-models/floor-lamp-lampara-de-piso-686870b6dd8c4e649d2697d62256308c",
      "title": "Floor lamp / Lampara de piso"
    },
    "generator": "Sketchfab-15.49.0",
    "version": "2.0"
  },
  "bufferViews": [
    {
      "buffer": 0,
      "byteLength": 266568,
      "name": "floatBufferViews",
      "target": 34963
    },
    {
      "buffer": 0,
      "byteLength": 337168,
      "byteOffset": 266568,
      "byteStride": 8,
      "name": "floatBufferViews",
      "target": 34962
    },
    {
      "buffer": 0,
      "byteLength": 1011504,
      "byteOffset": 603736,
      "byteStride": 12,
      "name": "floatBufferViews",
      "target": 34962
    }
  ],
  "buffers": [
    {
      "byteLength": 1615240,
      "uri": "scene.bin"
    }
  ],
  "extensionsRequired": [
    "KHR_materials_pbrSpecularGlossiness"
  ],
  "extensionsUsed": [
    "KHR_materials_pbrSpecularGlossiness"
  ],
  "materials": [
    {
      "doubleSided": true,
      "extensions": {
        "KHR_materials_pbrSpecularGlossiness": {
          "diffuseFactor": [
            0.9309814245047139,
            0.5227750383932875,
            0.2402749374376311,
            1.0
          ],
          "glossinessFactor": 0.4,
          "specularFactor": [
            0.0,
            0.0,
            0.0
          ]
        }
      },
      "name": "Material.001"
    },
    {
      "doubleSided": true,
      "extensions": {
        "KHR_materials_pbrSpecularGlossiness": {
          "diffuseFactor": [
            0.0693571372228666,
            0.05649466227765343,
            0.05649466227765343,
            1.0
          ],
          "glossinessFactor": 0.6419036705635675,
          "specularFactor": [
            0.21790542599748874,
            0.21790542599748874,
            0.21790542599748874
          ]
        }
      },
      "name": "Material.002"
    },
    {
      "doubleSided": true,
      "extensions": {
        "KHR_materials_pbrSpecularGlossiness": {
          "diffuseFactor": [
            0.0925066476767465,
            0.0742629217792346,
            0.0742629217792346,
            1.0
          ],
          "glossinessFactor": 0.7577135473174775,
          "specularFactor": [
            0.1569528592849045,
            0.1569528592849045,
            0.1569528592849045
          ]
        }
      },
      "name": "Material.003"
    },
    {
      "doubleSided": true,
      "extensions": {
        "KHR_materials_pbrSpecularGlossiness": {
          "diffuseFactor": [
            0.2482802702197365,
            0.20525102432585904,
            0.20525102432585904,
            1.0
          ],
          "glossinessFactor": 0.4,
          "specularFactor": [
            0.0,
            0.0,
            0.0
          ]
        }
      },
      "name": "Material.004"
    },
    {
      "doubleSided": true,
      "extensions": {
        "KHR_materials_pbrSpecularGlossiness": {
          "diffuseFactor": [
            0.15766773041875703,
            0.13223252941075817,
            0.13223252941075817,
            1.0
          ],
          "glossinessFactor": 0.4,
          "specularFactor": [
            0.0,
            0.0,
            0.0
          ]
        }
      },
      "name": "Material.005"
    },
    {
      "doubleSided": true,
      "extensions": {
        "KHR_materials_pbrSpecularGlossiness": {
          "diffuseFactor": [
            0.14107431122548625,
            0.11844593811912633,
            0.11844593811912633,
            1.0
          ],
          "glossinessFactor": 0.4,
          "specularFactor": [
            0.0,
            0.0,
            0.0
          ]
        }
      },
      "name": "Material.006"
    },
    {
      "doubleSided": true,
      "extensions": {
        "KHR_materials_pbrSpecularGlossiness": {
          "diffuseFactor": [
            0.1902856685580007,
            0.1481229756275797,
            0.1481229756275797,
            1.0
          ],
          "glossinessFactor": 0.4,
          "specularFactor": [
            0.0,
            0.0,
            0.0
          ]
        }
      },
      "name": "Material.007"
    },
    {
      "doubleSided": true,
      "extensions": {
        "KHR_materials_pbrSpecularGlossiness": {
          "diffuseFactor": [
            0.2806968848888971,
            0.21516640577337692,
            0.21516640577337692,
            1.0
          ],
          "glossinessFactor": 0.4,
          "specularFactor": [
            0.3946678694639831,
            0.3946678694639831,
            0.3946678694639831
          ]
        }
      },
      "name": "Material.008"
    },
    {
      "doubleSided": true,
      "extensions": {
        "KHR_materials_pbrSpecularGlossiness": {
          "diffuseFactor": [
            1.0,
            1.0,
            1.0,
            1.0
          ],
          "glossinessFactor": 0.4,
          "specularFactor": [
            0.0,
            0.0,
            0.0
          ]
        }
      },
      "name": "Material.009"
    }
  ],
  "meshes": [
    {
      "name": "Object_0",
      "primitives": [
        {
          "attributes": {
            "NORMAL": 1,
            "POSITION": 0,
            "TEXCOORD_0": 2
          },
          "indices": 3,
          "material": 0,
          "mode": 4
        }
      ]
    },
    {
      "name": "Object_1",
      "primitives": [
        {
          "attributes": {
            "NORMAL": 5,
            "POSITION": 4,
            "TEXCOORD_0": 6
          },
          "indices": 7,
          "material": 1,
          "mode": 4
        }
      ]
    },
    {
      "name": "Object_2",
      "primitives": [
        {
          "attributes": {
            "NORMAL": 9,
            "POSITION": 8,
            "TEXCOORD_0": 10
          },
          "indices": 11,
          "material": 2,
          "mode": 4
        }
      ]
    },
    {
      "name": "Object_3",
      "primitives": [
        {
          "attributes": {
            "NORMAL": 13,
            "POSITION": 12,
            "TEXCOORD_0": 14
          },
          "indices": 15,
          "material": 3,
          "mode": 4
        }
      ]
    },
    {
      "name": "Object_4",
      "primitives": [
        {
          "attributes": {
            "NORMAL": 17,
            "POSITION": 16,
            "TEXCOORD_0": 18
          },
          "indices": 19,
          "material": 4,
          "mode": 4
        }
      ]
    },
    {
      "name": "Object_5",
      "primitives": [
        {
          "attributes": {
            "NORMAL": 21,
            "POSITION": 20,
            "TEXCOORD_0": 22
          },
          "indices": 23,
          "material": 5,
          "mode": 4
        }
      ]
    },
    {
      "name": "Object_6",
      "primitives": [
        {
          "attributes": {
            "NORMAL": 25,
            "POSITION": 24,
            "TEXCOORD_0": 26
          },
          "indices": 27,
          "material": 6,
          "mode": 4
        }
      ]
    },
    {
      "name": "Object_7",
      "primitives": [
        {
          "attributes": {
            "NORMAL": 29,
            "POSITION": 28,
            "TEXCOORD_0": 30
          },
          "indices": 31,
          "material": 7,
          "mode": 4
        }
      ]
    },
    {
      "name": "Object_8",
      "primitives": [
        {
          "attributes": {
            "NORMAL": 33,
            "POSITION": 32,
            "TEXCOORD_0": 34
          },
          "indices": 35,
          "material": 8,
          "mode": 4
        }
      ]
    }
  ],
  "nodes": [
    {
      "children": [
        1
      ],
      "matrix": [
        0.11202827095985413,
        0.0,
        0.0,
        0.0,
        0.0,
        2.4875273165715167e-17,
        -0.11202827095985413,
        0.0,
        0.0,
        0.11202827095985413,
        2.4875273165715167e-17,
        0.0,
        0.0,
        0.0,
        0.0,
        1.0
      ],
      "name": "Sketchfab_model"
    },
    {
      "children": [
        2,
        3,
        4,
        5,
        6,
        7,
        8,
        9,
        10
      ],
      "name": "Lampara final.obj.cleaner.materialmerger.gles"
    },
    {
      "mesh": 0,
      "name": "Object_2"
    },
    {
      "mesh": 1,
      "name": "Object_3"
    },
    {
      "mesh": 2,
      "name": "Object_4"
    },
    {
      "mesh": 3,
      "name": "Object_5"
    },
    {
      "mesh": 4,
      "name": "Object_6"
    },
    {
      "mesh": 5,
      "name": "Object_7"
    },
    {
      "mesh": 6,
      "name": "Object_8"
    },
    {
      "mesh": 7,
      "name": "Object_9"
    },
    {
      "mesh": 8,
      "name": "Object_10"
    }
  ],
  "scene": 0,
  "scenes": [
    {
      "name": "Sketchfab_Scene",
      "nodes": [
        0
      ]
    }
  ]
}
